<mxfile host="app.diagrams.net" modified="2022-04-26T01:38:45.443Z" agent="5.0 (Windows NT 10.0; Win64; x64) AppleWebKit/537.36 (KHTML, like Gecko) Chrome/100.0.4896.127 Safari/537.36 Edg/100.0.1185.44" etag="qg5BDsCOK65xZkV7lOcj" version="17.1.3" type="github">
  <diagram name="Page-1" id="e7e014a7-5840-1c2e-5031-d8a46d1fe8dd">
    <mxGraphModel dx="2591" dy="762" grid="1" gridSize="10" guides="1" tooltips="1" connect="1" arrows="1" fold="1" page="1" pageScale="1" pageWidth="1169" pageHeight="826" background="none" math="0" shadow="0">
      <root>
        <mxCell id="0" />
        <mxCell id="1" parent="0" />
        <mxCell id="VJ0VMhZhghSGf0yXx016-54" value=" bond_order" style="swimlane;fontStyle=0;childLayout=stackLayout;horizontal=1;startSize=26;fillColor=none;horizontalStack=0;resizeParent=1;resizeParentMax=0;resizeLast=0;collapsible=1;marginBottom=0;" vertex="1" parent="1">
          <mxGeometry x="350" y="30" width="140" height="416" as="geometry">
            <mxRectangle x="20" y="40" width="90" height="26" as="alternateBounds" />
          </mxGeometry>
        </mxCell>
        <mxCell id="VJ0VMhZhghSGf0yXx016-55" value="client_id" style="text;strokeColor=none;fillColor=none;align=left;verticalAlign=top;spacingLeft=4;spacingRight=4;overflow=hidden;rotatable=0;points=[[0,0.5],[1,0.5]];portConstraint=eastwest;" vertex="1" parent="VJ0VMhZhghSGf0yXx016-54">
          <mxGeometry y="26" width="140" height="26" as="geometry" />
        </mxCell>
        <mxCell id="VJ0VMhZhghSGf0yXx016-112" value="trade_date" style="text;strokeColor=none;fillColor=none;align=left;verticalAlign=top;spacingLeft=4;spacingRight=4;overflow=hidden;rotatable=0;points=[[0,0.5],[1,0.5]];portConstraint=eastwest;" vertex="1" parent="VJ0VMhZhghSGf0yXx016-54">
          <mxGeometry y="52" width="140" height="26" as="geometry" />
        </mxCell>
        <mxCell id="VJ0VMhZhghSGf0yXx016-110" value="isin_code" style="text;strokeColor=none;fillColor=none;align=left;verticalAlign=top;spacingLeft=4;spacingRight=4;overflow=hidden;rotatable=0;points=[[0,0.5],[1,0.5]];portConstraint=eastwest;" vertex="1" parent="VJ0VMhZhghSGf0yXx016-54">
          <mxGeometry y="78" width="140" height="26" as="geometry" />
        </mxCell>
        <mxCell id="VJ0VMhZhghSGf0yXx016-111" value="trade_currency&#xa;" style="text;strokeColor=none;fillColor=none;align=left;verticalAlign=top;spacingLeft=4;spacingRight=4;overflow=hidden;rotatable=0;points=[[0,0.5],[1,0.5]];portConstraint=eastwest;" vertex="1" parent="VJ0VMhZhghSGf0yXx016-54">
          <mxGeometry y="104" width="140" height="26" as="geometry" />
        </mxCell>
        <mxCell id="VJ0VMhZhghSGf0yXx016-56" value="bss_money_account_id" style="text;strokeColor=none;fillColor=none;align=left;verticalAlign=top;spacingLeft=4;spacingRight=4;overflow=hidden;rotatable=0;points=[[0,0.5],[1,0.5]];portConstraint=eastwest;" vertex="1" parent="VJ0VMhZhghSGf0yXx016-54">
          <mxGeometry y="130" width="140" height="26" as="geometry" />
        </mxCell>
        <mxCell id="VJ0VMhZhghSGf0yXx016-57" value="side" style="text;strokeColor=none;fillColor=none;align=left;verticalAlign=top;spacingLeft=4;spacingRight=4;overflow=hidden;rotatable=0;points=[[0,0.5],[1,0.5]];portConstraint=eastwest;" vertex="1" parent="VJ0VMhZhghSGf0yXx016-54">
          <mxGeometry y="156" width="140" height="26" as="geometry" />
        </mxCell>
        <mxCell id="VJ0VMhZhghSGf0yXx016-64" value="platform_fee" style="text;strokeColor=none;fillColor=none;align=left;verticalAlign=top;spacingLeft=4;spacingRight=4;overflow=hidden;rotatable=0;points=[[0,0.5],[1,0.5]];portConstraint=eastwest;" vertex="1" parent="VJ0VMhZhghSGf0yXx016-54">
          <mxGeometry y="182" width="140" height="26" as="geometry" />
        </mxCell>
        <mxCell id="VJ0VMhZhghSGf0yXx016-70" value="trade_price_percent" style="text;strokeColor=none;fillColor=none;align=left;verticalAlign=top;spacingLeft=4;spacingRight=4;overflow=hidden;rotatable=0;points=[[0,0.5],[1,0.5]];portConstraint=eastwest;" vertex="1" parent="VJ0VMhZhghSGf0yXx016-54">
          <mxGeometry y="208" width="140" height="26" as="geometry" />
        </mxCell>
        <mxCell id="VJ0VMhZhghSGf0yXx016-71" value="trade_type" style="text;strokeColor=none;fillColor=none;align=left;verticalAlign=top;spacingLeft=4;spacingRight=4;overflow=hidden;rotatable=0;points=[[0,0.5],[1,0.5]];portConstraint=eastwest;" vertex="1" parent="VJ0VMhZhghSGf0yXx016-54">
          <mxGeometry y="234" width="140" height="26" as="geometry" />
        </mxCell>
        <mxCell id="VJ0VMhZhghSGf0yXx016-72" value="contract_settle_date" style="text;strokeColor=none;fillColor=none;align=left;verticalAlign=top;spacingLeft=4;spacingRight=4;overflow=hidden;rotatable=0;points=[[0,0.5],[1,0.5]];portConstraint=eastwest;" vertex="1" parent="VJ0VMhZhghSGf0yXx016-54">
          <mxGeometry y="260" width="140" height="26" as="geometry" />
        </mxCell>
        <mxCell id="VJ0VMhZhghSGf0yXx016-73" value="trade_amount" style="text;strokeColor=none;fillColor=none;align=left;verticalAlign=top;spacingLeft=4;spacingRight=4;overflow=hidden;rotatable=0;points=[[0,0.5],[1,0.5]];portConstraint=eastwest;" vertex="1" parent="VJ0VMhZhghSGf0yXx016-54">
          <mxGeometry y="286" width="140" height="26" as="geometry" />
        </mxCell>
        <mxCell id="VJ0VMhZhghSGf0yXx016-74" value="trade_par" style="text;strokeColor=none;fillColor=none;align=left;verticalAlign=top;spacingLeft=4;spacingRight=4;overflow=hidden;rotatable=0;points=[[0,0.5],[1,0.5]];portConstraint=eastwest;" vertex="1" parent="VJ0VMhZhghSGf0yXx016-54">
          <mxGeometry y="312" width="140" height="26" as="geometry" />
        </mxCell>
        <mxCell id="VJ0VMhZhghSGf0yXx016-75" value="pre_accrual_interest" style="text;strokeColor=none;fillColor=none;align=left;verticalAlign=top;spacingLeft=4;spacingRight=4;overflow=hidden;rotatable=0;points=[[0,0.5],[1,0.5]];portConstraint=eastwest;" vertex="1" parent="VJ0VMhZhghSGf0yXx016-54">
          <mxGeometry y="338" width="140" height="26" as="geometry" />
        </mxCell>
        <mxCell id="VJ0VMhZhghSGf0yXx016-76" value="commission" style="text;strokeColor=none;fillColor=none;align=left;verticalAlign=top;spacingLeft=4;spacingRight=4;overflow=hidden;rotatable=0;points=[[0,0.5],[1,0.5]];portConstraint=eastwest;" vertex="1" parent="VJ0VMhZhghSGf0yXx016-54">
          <mxGeometry y="364" width="140" height="26" as="geometry" />
        </mxCell>
        <mxCell id="VJ0VMhZhghSGf0yXx016-77" value="settle_type" style="text;strokeColor=none;fillColor=none;align=left;verticalAlign=top;spacingLeft=4;spacingRight=4;overflow=hidden;rotatable=0;points=[[0,0.5],[1,0.5]];portConstraint=eastwest;" vertex="1" parent="VJ0VMhZhghSGf0yXx016-54">
          <mxGeometry y="390" width="140" height="26" as="geometry" />
        </mxCell>
        <mxCell id="VJ0VMhZhghSGf0yXx016-78" value="bond_product_basic" style="swimlane;fontStyle=0;childLayout=stackLayout;horizontal=1;startSize=26;fillColor=none;horizontalStack=0;resizeParent=1;resizeParentMax=0;resizeLast=0;collapsible=1;marginBottom=0;" vertex="1" parent="1">
          <mxGeometry x="160" y="286" width="140" height="104" as="geometry" />
        </mxCell>
        <mxCell id="VJ0VMhZhghSGf0yXx016-79" value="isin_code" style="text;strokeColor=none;fillColor=none;align=left;verticalAlign=top;spacingLeft=4;spacingRight=4;overflow=hidden;rotatable=0;points=[[0,0.5],[1,0.5]];portConstraint=eastwest;" vertex="1" parent="VJ0VMhZhghSGf0yXx016-78">
          <mxGeometry y="26" width="140" height="26" as="geometry" />
        </mxCell>
        <mxCell id="VJ0VMhZhghSGf0yXx016-80" value="name" style="text;strokeColor=none;fillColor=none;align=left;verticalAlign=top;spacingLeft=4;spacingRight=4;overflow=hidden;rotatable=0;points=[[0,0.5],[1,0.5]];portConstraint=eastwest;" vertex="1" parent="VJ0VMhZhghSGf0yXx016-78">
          <mxGeometry y="52" width="140" height="26" as="geometry" />
        </mxCell>
        <mxCell id="VJ0VMhZhghSGf0yXx016-81" value="name_en ：债券代码" style="text;strokeColor=none;fillColor=none;align=left;verticalAlign=top;spacingLeft=4;spacingRight=4;overflow=hidden;rotatable=0;points=[[0,0.5],[1,0.5]];portConstraint=eastwest;" vertex="1" parent="VJ0VMhZhghSGf0yXx016-78">
          <mxGeometry y="78" width="140" height="26" as="geometry" />
        </mxCell>
        <mxCell id="VJ0VMhZhghSGf0yXx016-141" style="edgeStyle=orthogonalEdgeStyle;rounded=0;orthogonalLoop=1;jettySize=auto;html=1;" edge="1" parent="1">
          <mxGeometry relative="1" as="geometry">
            <mxPoint x="600" y="710" as="targetPoint" />
            <mxPoint x="600" y="710" as="sourcePoint" />
          </mxGeometry>
        </mxCell>
        <mxCell id="VJ0VMhZhghSGf0yXx016-152" style="edgeStyle=orthogonalEdgeStyle;rounded=0;orthogonalLoop=1;jettySize=auto;html=1;entryX=0.723;entryY=0.017;entryDx=0;entryDy=0;entryPerimeter=0;" edge="1" parent="1" source="VJ0VMhZhghSGf0yXx016-92" target="VJ0VMhZhghSGf0yXx016-134">
          <mxGeometry relative="1" as="geometry" />
        </mxCell>
        <mxCell id="VJ0VMhZhghSGf0yXx016-92" value="bond_product_hq_daily" style="swimlane;fontStyle=0;childLayout=stackLayout;horizontal=1;startSize=26;fillColor=none;horizontalStack=0;resizeParent=1;resizeParentMax=0;resizeLast=0;collapsible=1;marginBottom=0;" vertex="1" parent="1">
          <mxGeometry x="540" y="466" width="140" height="104" as="geometry" />
        </mxCell>
        <mxCell id="VJ0VMhZhghSGf0yXx016-93" value="isin_code" style="text;strokeColor=none;fillColor=none;align=left;verticalAlign=top;spacingLeft=4;spacingRight=4;overflow=hidden;rotatable=0;points=[[0,0.5],[1,0.5]];portConstraint=eastwest;" vertex="1" parent="VJ0VMhZhghSGf0yXx016-92">
          <mxGeometry y="26" width="140" height="26" as="geometry" />
        </mxCell>
        <mxCell id="VJ0VMhZhghSGf0yXx016-106" value="hq_date" style="text;strokeColor=none;fillColor=none;align=left;verticalAlign=top;spacingLeft=4;spacingRight=4;overflow=hidden;rotatable=0;points=[[0,0.5],[1,0.5]];portConstraint=eastwest;" vertex="1" parent="VJ0VMhZhghSGf0yXx016-92">
          <mxGeometry y="52" width="140" height="26" as="geometry" />
        </mxCell>
        <mxCell id="VJ0VMhZhghSGf0yXx016-107" value="bval_mid_price" style="text;strokeColor=none;fillColor=none;align=left;verticalAlign=top;spacingLeft=4;spacingRight=4;overflow=hidden;rotatable=0;points=[[0,0.5],[1,0.5]];portConstraint=eastwest;" vertex="1" parent="VJ0VMhZhghSGf0yXx016-92">
          <mxGeometry y="78" width="140" height="26" as="geometry" />
        </mxCell>
        <mxCell id="VJ0VMhZhghSGf0yXx016-83" value=" bond_holding_daily" style="swimlane;fontStyle=0;childLayout=stackLayout;horizontal=1;startSize=26;fillColor=none;horizontalStack=0;resizeParent=1;resizeParentMax=0;resizeLast=0;collapsible=1;marginBottom=0;" vertex="1" parent="1">
          <mxGeometry x="350" y="466" width="140" height="204" as="geometry" />
        </mxCell>
        <mxCell id="VJ0VMhZhghSGf0yXx016-84" value="client_id" style="text;strokeColor=none;fillColor=none;align=left;verticalAlign=top;spacingLeft=4;spacingRight=4;overflow=hidden;rotatable=0;points=[[0,0.5],[1,0.5]];portConstraint=eastwest;" vertex="1" parent="VJ0VMhZhghSGf0yXx016-83">
          <mxGeometry y="26" width="140" height="24" as="geometry" />
        </mxCell>
        <mxCell id="VJ0VMhZhghSGf0yXx016-126" value="trade_date" style="text;strokeColor=none;fillColor=none;align=left;verticalAlign=top;spacingLeft=4;spacingRight=4;overflow=hidden;rotatable=0;points=[[0,0.5],[1,0.5]];portConstraint=eastwest;" vertex="1" parent="VJ0VMhZhghSGf0yXx016-83">
          <mxGeometry y="50" width="140" height="24" as="geometry" />
        </mxCell>
        <mxCell id="VJ0VMhZhghSGf0yXx016-127" value="isin_code" style="text;strokeColor=none;fillColor=none;align=left;verticalAlign=top;spacingLeft=4;spacingRight=4;overflow=hidden;rotatable=0;points=[[0,0.5],[1,0.5]];portConstraint=eastwest;" vertex="1" parent="VJ0VMhZhghSGf0yXx016-83">
          <mxGeometry y="74" width="140" height="24" as="geometry" />
        </mxCell>
        <mxCell id="VJ0VMhZhghSGf0yXx016-108" value="currency_code" style="text;strokeColor=none;fillColor=none;align=left;verticalAlign=top;spacingLeft=4;spacingRight=4;overflow=hidden;rotatable=0;points=[[0,0.5],[1,0.5]];portConstraint=eastwest;" vertex="1" parent="VJ0VMhZhghSGf0yXx016-83">
          <mxGeometry y="98" width="140" height="24" as="geometry" />
        </mxCell>
        <mxCell id="VJ0VMhZhghSGf0yXx016-96" value="current_par" style="text;strokeColor=none;fillColor=none;align=left;verticalAlign=top;spacingLeft=4;spacingRight=4;overflow=hidden;rotatable=0;points=[[0,0.5],[1,0.5]];portConstraint=eastwest;" vertex="1" parent="VJ0VMhZhghSGf0yXx016-83">
          <mxGeometry y="122" width="140" height="30" as="geometry" />
        </mxCell>
        <mxCell id="VJ0VMhZhghSGf0yXx016-85" value="uncome_buy_par" style="text;strokeColor=none;fillColor=none;align=left;verticalAlign=top;spacingLeft=4;spacingRight=4;overflow=hidden;rotatable=0;points=[[0,0.5],[1,0.5]];portConstraint=eastwest;" vertex="1" parent="VJ0VMhZhghSGf0yXx016-83">
          <mxGeometry y="152" width="140" height="26" as="geometry" />
        </mxCell>
        <mxCell id="VJ0VMhZhghSGf0yXx016-86" value="uncome_sell_par" style="text;strokeColor=none;fillColor=none;align=left;verticalAlign=top;spacingLeft=4;spacingRight=4;overflow=hidden;rotatable=0;points=[[0,0.5],[1,0.5]];portConstraint=eastwest;" vertex="1" parent="VJ0VMhZhghSGf0yXx016-83">
          <mxGeometry y="178" width="140" height="26" as="geometry" />
        </mxCell>
        <mxCell id="VJ0VMhZhghSGf0yXx016-114" value=" bond_statement_config" style="swimlane;fontStyle=0;childLayout=stackLayout;horizontal=1;startSize=26;fillColor=none;horizontalStack=0;resizeParent=1;resizeParentMax=0;resizeLast=0;collapsible=1;marginBottom=0;" vertex="1" parent="1">
          <mxGeometry y="840" width="140" height="104" as="geometry" />
        </mxCell>
        <mxCell id="VJ0VMhZhghSGf0yXx016-115" value="client_id" style="text;strokeColor=none;fillColor=none;align=left;verticalAlign=top;spacingLeft=4;spacingRight=4;overflow=hidden;rotatable=0;points=[[0,0.5],[1,0.5]];portConstraint=eastwest;" vertex="1" parent="VJ0VMhZhghSGf0yXx016-114">
          <mxGeometry y="26" width="140" height="26" as="geometry" />
        </mxCell>
        <mxCell id="VJ0VMhZhghSGf0yXx016-116" value="dailly_send_type" style="text;strokeColor=none;fillColor=none;align=left;verticalAlign=top;spacingLeft=4;spacingRight=4;overflow=hidden;rotatable=0;points=[[0,0.5],[1,0.5]];portConstraint=eastwest;" vertex="1" parent="VJ0VMhZhghSGf0yXx016-114">
          <mxGeometry y="52" width="140" height="26" as="geometry" />
        </mxCell>
        <mxCell id="VJ0VMhZhghSGf0yXx016-117" value="monthly_send_type" style="text;strokeColor=none;fillColor=none;align=left;verticalAlign=top;spacingLeft=4;spacingRight=4;overflow=hidden;rotatable=0;points=[[0,0.5],[1,0.5]];portConstraint=eastwest;" vertex="1" parent="VJ0VMhZhghSGf0yXx016-114">
          <mxGeometry y="78" width="140" height="26" as="geometry" />
        </mxCell>
        <mxCell id="VJ0VMhZhghSGf0yXx016-124" style="edgeStyle=orthogonalEdgeStyle;rounded=0;orthogonalLoop=1;jettySize=auto;html=1;exitX=0.5;exitY=0;exitDx=0;exitDy=0;entryX=0;entryY=0.5;entryDx=0;entryDy=0;" edge="1" parent="1" source="VJ0VMhZhghSGf0yXx016-119" target="VJ0VMhZhghSGf0yXx016-55">
          <mxGeometry relative="1" as="geometry" />
        </mxCell>
        <mxCell id="VJ0VMhZhghSGf0yXx016-131" style="edgeStyle=orthogonalEdgeStyle;rounded=0;orthogonalLoop=1;jettySize=auto;html=1;exitX=0.5;exitY=1;exitDx=0;exitDy=0;" edge="1" parent="1" source="VJ0VMhZhghSGf0yXx016-119" target="VJ0VMhZhghSGf0yXx016-84">
          <mxGeometry relative="1" as="geometry">
            <Array as="points">
              <mxPoint x="65" y="504" />
            </Array>
          </mxGeometry>
        </mxCell>
        <mxCell id="VJ0VMhZhghSGf0yXx016-119" value="参数：client_id,trade_date&lt;br&gt;(月结单：start/end)" style="shape=parallelogram;perimeter=parallelogramPerimeter;whiteSpace=wrap;html=1;fixedSize=1;" vertex="1" parent="1">
          <mxGeometry x="-20" y="331" width="170" height="59" as="geometry" />
        </mxCell>
        <mxCell id="VJ0VMhZhghSGf0yXx016-134" value="&lt;span style=&quot;text-align: left&quot;&gt;公式： holding_par = current_par+uncome_buy_par-uncome_sell_par&lt;br&gt;&lt;/span&gt;&lt;span style=&quot;text-align: left&quot;&gt;&amp;nbsp;price_percent = bval_mid_price * holding_par&lt;/span&gt;&lt;span style=&quot;text-align: left&quot;&gt;&lt;br&gt;&lt;/span&gt;" style="shape=parallelogram;perimeter=parallelogramPerimeter;whiteSpace=wrap;html=1;fixedSize=1;" vertex="1" parent="1">
          <mxGeometry x="320" y="720" width="400" height="60" as="geometry" />
        </mxCell>
        <mxCell id="VJ0VMhZhghSGf0yXx016-142" style="edgeStyle=orthogonalEdgeStyle;rounded=0;orthogonalLoop=1;jettySize=auto;html=1;entryX=0.5;entryY=0;entryDx=0;entryDy=0;" edge="1" parent="1" source="VJ0VMhZhghSGf0yXx016-86" target="VJ0VMhZhghSGf0yXx016-134">
          <mxGeometry relative="1" as="geometry" />
        </mxCell>
        <mxCell id="VJ0VMhZhghSGf0yXx016-147" value="" style="edgeStyle=orthogonalEdgeStyle;orthogonalLoop=1;jettySize=auto;html=1;entryX=0;entryY=0.5;entryDx=0;entryDy=0;rounded=0;" edge="1" parent="1" source="VJ0VMhZhghSGf0yXx016-126" target="VJ0VMhZhghSGf0yXx016-106">
          <mxGeometry relative="1" as="geometry" />
        </mxCell>
        <mxCell id="VJ0VMhZhghSGf0yXx016-158" value="if dalily_send_type = 1(变动发送）&lt;br&gt;&amp;amp;&amp;amp; (bond_holding_log changed || bond_order changed)" style="shape=parallelogram;perimeter=parallelogramPerimeter;whiteSpace=wrap;html=1;fixedSize=1;shadow=0;strokeColor=#000000;fillColor=none;" vertex="1" parent="1">
          <mxGeometry x="220" y="870" width="330" height="60" as="geometry" />
        </mxCell>
        <mxCell id="VJ0VMhZhghSGf0yXx016-166" style="edgeStyle=orthogonalEdgeStyle;rounded=0;orthogonalLoop=1;jettySize=auto;html=1;exitX=1;exitY=0.5;exitDx=0;exitDy=0;" edge="1" parent="1" source="VJ0VMhZhghSGf0yXx016-116">
          <mxGeometry relative="1" as="geometry">
            <mxPoint x="230" y="905" as="targetPoint" />
          </mxGeometry>
        </mxCell>
        <mxCell id="VJ0VMhZhghSGf0yXx016-172" style="edgeStyle=orthogonalEdgeStyle;rounded=0;orthogonalLoop=1;jettySize=auto;html=1;entryX=1;entryY=0.5;entryDx=0;entryDy=0;" edge="1" parent="1" source="VJ0VMhZhghSGf0yXx016-110" target="VJ0VMhZhghSGf0yXx016-79">
          <mxGeometry relative="1" as="geometry" />
        </mxCell>
        <mxCell id="VJ0VMhZhghSGf0yXx016-173" style="edgeStyle=orthogonalEdgeStyle;rounded=0;orthogonalLoop=1;jettySize=auto;html=1;entryX=1;entryY=0.5;entryDx=0;entryDy=0;" edge="1" parent="1" source="VJ0VMhZhghSGf0yXx016-127" target="VJ0VMhZhghSGf0yXx016-79">
          <mxGeometry relative="1" as="geometry" />
        </mxCell>
      </root>
    </mxGraphModel>
  </diagram>
</mxfile>
